<svg xmlns="http://www.w3.org/2000/svg" width="44" height="41" viewBox="0 0 44 41">
    <g fill="none" fill-rule="nonzero" transform="translate(1 1)">
        <path stroke="#00091D" d="M42 19.614c0 3.49-.626 8.84-2.41 11.874C36.443 36.762 31.169 39 21 39c-10.035 0-15.423-2.238-18.534-7.512C.683 28.453 0 23.104 0 19.614c0-3.434.683-9.067 2.466-12.102C5.558 2.238 10.908 0 21 0c10.15 0 15.423 2.238 18.59 7.512C41.375 10.547 42 16.18 42 19.614z"/>
        <path fill="#00091D" d="M33.023 21.602c-.818 3.313-4.203 5.356-7.569 4.546-2.808-.681-4.78-3.166-4.78-6.019v-7.803h2.586v7.803c0 2.007 1.655 3.645 3.682 3.645 1.506 0 2.864-.92 3.422-2.301.8.515 1.822.57 2.66.129zm-1.209-4.693c.503 0 .986.128 1.395.404v-4.987h-2.585v4.877a2.427 2.427 0 0 1 1.19-.294zm-22.205.018a2.517 2.517 0 0 1 1.804.442 4.8 4.8 0 0 1 4.11-3.092c.074-.019 1.767-.24 4.166.736v-2.669a12.487 12.487 0 0 0-3.366-.626c-.13 0-.28-.018-.41-.018-3.347 0-6.267 2.209-7.122 5.411l.055-.018c.242-.092.503-.148.763-.166zm10.656 5.982c-.055-.148-.13-.313-.186-.46a7.203 7.203 0 0 1-4.575 1.306 4.787 4.787 0 0 1-3.868-2.558c-.353.331-.8.552-1.265.626a2.602 2.602 0 0 1-1.301-.037l.037.073a7.345 7.345 0 0 0 6.807 4.454c.334 0 .688-.018 1.022-.073a10.097 10.097 0 0 0 4.37-1.638 6.31 6.31 0 0 1-1.04-1.693z"/>
        <ellipse cx="32.233" cy="19.5" fill="#2AD38E" rx="1.953" ry="1.95"/>
        <ellipse cx="9.767" cy="19.5" fill="#FB425A" rx="1.953" ry="1.95"/>
    </g>
</svg>
